HIERARCHY
ROOT root
{
	OFFSET	0	13.1	24.9
	CHANNELS 6  Xposition Yposition Zposition Xrotation Yrotation Zrotation
	JOINT spine_1
	{
		OFFSET	0	9.99999	0
		CHANNELS 3  Xrotation Yrotation Zrotation
		JOINT spine_2
		{
			OFFSET	0	112	-10
			CHANNELS 3  Xrotation Yrotation Zrotation
			JOINT spine_3
			{
				OFFSET	0	206.5	19.3
				CHANNELS 3  Xrotation Yrotation Zrotation
				JOINT spine_4
				{
					OFFSET	0	110.4	14.6
					CHANNELS 3  Xrotation Yrotation Zrotation
					JOINT neck_1
					{
						OFFSET	0	71.8	-50.3
						CHANNELS 3  Xrotation Yrotation Zrotation
						JOINT neck_2
						{
							OFFSET	0	86.2	-25.8
							CHANNELS 3  Xrotation Yrotation Zrotation
							JOINT head_ee
							{
								OFFSET	0	179.8	-8.7
								CHANNELS 3  Xrotation Yrotation Zrotation
								End Site
								{
									OFFSET	1	0	0
								}
							}
						}
					}
					JOINT left_clavicle
					{
						OFFSET	-43.2	22.4	-70.8
						CHANNELS 3  Xrotation Yrotation Zrotation
						JOINT left_shoulder
						{
							OFFSET	-93.9	-5.79999	48.7
							CHANNELS 3  Xrotation Yrotation Zrotation
							JOINT left_elbow
							{
								OFFSET	-291.4	-30.8	15.2
								CHANNELS 3  Xrotation Yrotation Zrotation
								JOINT left_lowarm_twist
								{
									OFFSET	-110.7	-3.89999	13.6
									CHANNELS 3  Xrotation Yrotation Zrotation
									JOINT left_hand
									{
										OFFSET	-110.7	-3.89999	13.6
										CHANNELS 3  Xrotation Yrotation Zrotation
										JOINT left_ee
										{
											OFFSET	-80.8	-5.10001	12.1
											CHANNELS 3  Xrotation Yrotation Zrotation
											End Site
											{
												OFFSET	1	0	0
											}
										}
									}
								}
							}
						}
					}
					JOINT right_clavicle
					{
						OFFSET	43.2	22.4	-70.8
						CHANNELS 3  Xrotation Yrotation Zrotation
						JOINT right_shoulder
						{
							OFFSET	93.9	-5.79999	48.7
							CHANNELS 3  Xrotation Yrotation Zrotation
							JOINT right_elbow
							{
								OFFSET	291.4	-30.8	15.2
								CHANNELS 3  Xrotation Yrotation Zrotation
								JOINT right_lowarm_twist
								{
									OFFSET	110.7	-3.89999	13.6
									CHANNELS 3  Xrotation Yrotation Zrotation
									JOINT right_hand
									{
										OFFSET	110.7	-3.89999	13.6
										CHANNELS 3  Xrotation Yrotation Zrotation
										JOINT right_ee
										{
											OFFSET	80.8	-5.10001	12.1
											CHANNELS 3  Xrotation Yrotation Zrotation
											End Site
											{
												OFFSET	1	0	0
											}
										}
									}
								}
							}
						}
					}
				}
			}
		}
	}
	JOINT left_hip
	{
		OFFSET	-82.8	-127.5	0.300001
		CHANNELS 3  Xrotation Yrotation Zrotation
		JOINT left_knee
		{
			OFFSET	-28.2	-396.7	2.2
			CHANNELS 3  Xrotation Yrotation Zrotation
			JOINT left_ankle
			{
				OFFSET	-11.7	-411.3	35.4
				CHANNELS 3  Xrotation Yrotation Zrotation
				JOINT left_toes
				{
					OFFSET	0	-60	-88.6
					CHANNELS 3  Xrotation Yrotation Zrotation
					JOINT left_foot_ee
					{
						OFFSET	-22.5	-16.5	-42.2
						CHANNELS 3  Xrotation Yrotation Zrotation
						End Site
						{
							OFFSET	1	0	0
						}
					}
				}
			}
		}
	}
	JOINT right_hip
	{
		OFFSET	82.8	-127.5	0.300001
		CHANNELS 3  Xrotation Yrotation Zrotation
		JOINT right_knee
		{
			OFFSET	28.2	-396.7	2.2
			CHANNELS 3  Xrotation Yrotation Zrotation
			JOINT right_ankle
			{
				OFFSET	11.7	-411.3	35.4
				CHANNELS 3  Xrotation Yrotation Zrotation
				JOINT right_toes
				{
					OFFSET	0	-60	-88.6
					CHANNELS 3  Xrotation Yrotation Zrotation
					JOINT right_foot_ee
					{
						OFFSET	22.5	-16.5	-42.2
						CHANNELS 3  Xrotation Yrotation Zrotation
						End Site
						{
							OFFSET	1	0	0
						}
					}
				}
			}
		}
	}
}
MOTION
Frames: 13
Frame Time: 0.02
2778.52312487 737.656 -1613.11370859 42.349413893 74.7032272679 -38.1262989401 -4.36467 -0.30273 -1.92516 -4.36263 -0.179637 -1.94051 -4.35305 0.378526 -1.91171 -4.35814 0.071917 -1.94748 -5.95365 4.41874 3.97546 -5.91219 5.2307 4.83503 -0.0 0.0 -0.0 11.4849 13.2717 21.164 8.9656 -18.0015 66.1677 1.46849 -36.0316 0.477611 76.1412 -3.40126 -8.37745 -8.3566 27.9926 -37.9506 -0.0 0.0 -0.0 11.425 21.7035 -22.4889 -9.02763 -24.6928 -57.4049 1.02892 27.0073 -0.247098 43.653 0.552776 5.41602 1.21283 -12.732 -12.9953 0.0 0.0 0.0 5.05238 -5.83648 0.592609 -37.7357 -0.329032 5.67867 39.9712 25.4273 -5.17925 -11.2495 0.0 0.0 -0.0 0.0 -0.0 0.300275 26.3705 -2.98881 -57.6152 1.94805 -8.25749 39.6382 -8.9723 4.83783 37.0179 -0.0 -0.0 0.0 0.0 0.0 
2762.06229378 734.273 -1616.25312959 34.936858859 73.6617630049 -30.6577718478 -3.92132 -0.252001 -1.78929 -3.91955 -0.137653 -1.80169 -3.91246 0.365781 -1.76954 -3.91682 0.0817718 -1.80509 -5.85331 5.1558 4.10998 -5.80843 6.48341 5.10383 -0.0 0.0 -0.0 11.4997 12.4194 21.3321 12.4986 -18.1435 65.4602 1.44753 -35.6409 0.465344 76.5686 -3.44891 -8.40463 -8.25226 27.3456 -37.9562 -0.0 0.0 -0.0 11.2949 21.8007 -22.1847 -10.1414 -26.7897 -57.995 0.928128 24.6911 -0.203142 42.8202 0.50402 5.32128 1.35528 -11.8986 -13.6261 0.0 0.0 0.0 3.04126 -6.14019 0.738192 -35.479 -0.204472 5.35507 41.7555 25.0893 -5.33636 -11.0642 0.0 0.0 -0.0 0.0 -0.0 3.73102 23.6864 -3.67323 -56.9585 1.88067 -8.18191 40.3716 -10.0239 4.90913 36.2449 -0.0 -0.0 0.0 0.0 0.0 
2739.72180499 741.038 -1616.31735108 34.0065921208 72.0797564934 -29.7486104464 -4.01616 -0.252964 -1.4961 -4.01493 -0.157262 -1.50916 -4.00876 0.268542 -1.49338 -4.01188 0.0293473 -1.51705 -6.01102 5.83449 4.51041 -5.95731 7.46096 5.63911 -0.0 0.0 -0.0 10.9567 11.7589 20.4201 14.5951 -18.1923 65.07 1.44187 -35.5345 0.462046 76.7359 -3.46762 -8.41517 -8.17853 26.8789 -37.9612 -0.0 0.0 -0.0 11.1771 21.7975 -21.9174 -11.1389 -28.5133 -58.651 0.852672 22.8984 -0.172694 42.4144 0.480766 5.27487 1.45904 -11.3077 -14.0964 0.0 0.0 0.0 0.0720689 -6.44514 1.01995 -35.535 -0.20741 5.36316 42.2137 24.6058 -5.36199 -11.0737 0.0 0.0 -0.0 0.0 -0.0 9.74664 20.8788 -4.35131 -56.1954 1.80347 -8.09313 40.7855 -10.9652 4.95291 35.6438 -0.0 -0.0 0.0 0.0 0.0 
2721.79146126 743.995 -1604.70891101 32.0377463521 71.9984518998 -27.9129006143 -3.91099 -0.256824 -1.42164 -3.90988 -0.16585 -1.43509 -3.90391 0.237081 -1.42506 -3.90674 0.0090684 -1.44461 -5.95048 6.34969 4.76127 -5.89011 8.2214 5.98462 -0.0 0.0 -0.0 10.741 11.3606 20.0741 17.141 -18.5438 64.6054 1.4703 -36.0653 0.47868 76.834 -3.4786 -8.42132 -8.11528 26.5072 -37.9246 -0.0 0.0 -0.0 11.1325 21.7153 -21.823 -11.7449 -29.8129 -58.5241 0.807525 21.8025 -0.155525 42.1027 0.463124 5.23911 1.53003 -10.8563 -14.4037 0.0 0.0 0.0 -1.59278 -6.61715 1.19953 -33.6311 -0.112054 5.08668 42.3255 24.447 -5.36683 -11.0727 0.0 0.0 -0.0 0.0 -0.0 13.3027 18.8406 -4.71634 -56.4535 1.82944 -8.12326 41.0046 -11.6183 4.97816 35.2344 -0.0 -0.0 0.0 0.0 0.0 
2709.62805258 747.723 -1595.02412732 30.137391651 72.0785625959 -25.9866862385 -3.755 -0.221694 -1.33588 -3.75401 -0.136247 -1.34728 -3.74927 0.237675 -1.33313 -3.75175 0.0241688 -1.35393 -6.17304 6.81128 5.33853 -6.09855 8.68055 6.66188 -0.0 0.0 -0.0 10.6231 12.4492 19.7053 19.0186 -18.5157 65.0041 1.73022 -40.5963 0.640004 74.5069 -3.22094 -8.2703 -8.11376 26.5943 -37.811 -0.0 0.0 -0.0 11.081 21.3095 -21.7391 -11.138 -32.6147 -58.0572 0.813043 21.9374 -0.157581 40.9913 0.401827 5.11084 1.55201 -10.4532 -14.4053 0.0 0.0 0.0 -5.23091 -6.90509 1.72986 -26.0957 0.173701 3.96639 38.1367 25.642 -5.00563 -12.8342 0.0 0.0 -0.0 0.0 -0.0 17.3121 13.9672 -4.14724 -57.9735 1.98518 -8.29841 40.6503 -10.0496 4.93349 35.9087 -0.0 -0.0 0.0 0.0 0.0 
2694.44872271 747.087 -1585.32309496 33.0297698051 73.2825267001 -29.8456238163 -3.68343 -0.435137 -1.18277 -3.68273 -0.358998 -1.20806 -3.67373 -0.0163953 -1.26016 -3.67588 -0.215192 -1.24176 -7.42596 7.43444 5.702 -7.34951 9.76059 7.21769 -0.0 0.0 -0.0 10.6775 13.5786 19.6408 20.9749 -18.6465 65.3758 1.94761 -43.9686 0.786331 71.1038 -2.85571 -8.03098 -7.57558 24.8981 -35.7146 -0.0 0.0 -0.0 10.9554 18.742 -21.6383 -10.5002 -35.6798 -57.3616 0.924756 24.612 -0.201735 39.6026 0.328754 4.94896 1.95753 -10.9545 -17.2845 0.0 0.0 0.0 -8.14848 -3.24969 3.18349 -19.1767 0.304526 2.91335 35.9496 26.6794 -4.8136 -12.5733 0.0 0.0 -0.0 0.0 -0.0 24.5072 10.3627 -5.5623 -55.8734 1.77125 -8.05536 41.5481 -11.0563 5.01907 37.4543 -0.0 -0.0 0.0 0.0 0.0 
2675.93234552 746.742 -1581.4330149 31.3161670798 73.7572761216 -28.2001049248 -3.60384 -0.366654 -1.14679 -3.60315 -0.292943 -1.1678 -3.5959 0.0345754 -1.20348 -3.59789 -0.155911 -1.19384 -6.64566 8.66886 4.93324 -6.58505 12.4974 6.64549 -0.0 0.0 -0.0 11.2324 13.8091 20.6116 22.9456 -17.81 65.134 2.15399 -46.8512 0.933346 69.4724 -2.68581 -7.90869 -7.11392 24.4165 -32.8813 -0.0 0.0 -0.0 10.9056 17.8602 -21.579 -10.6957 -38.2079 -57.3503 0.906904 24.1919 -0.19436 40.319 0.365959 5.03269 1.89772 -8.08901 -15.8694 0.0 0.0 0.0 -9.73983 -1.02772 3.27022 -16.2303 0.321476 2.46165 34.5609 26.5927 -4.66213 -12.5875 0.0 0.0 -0.0 0.0 -0.0 27.483 8.30157 -4.61491 -56.333 1.8173 -8.1092 40.6844 -6.84945 4.9194 38.1868 -0.0 -0.0 0.0 0.0 0.0 
2659.19232798 742.707 -1579.67590375 26.4446120189 73.2037185245 -23.6257906497 -3.52003 -0.149084 -0.996738 -3.51948 -0.0853601 -1.0042 -3.51718 0.188711 -0.990001 -3.51855 0.0299984 -1.00738 -6.93284 8.41841 5.55521 -6.85869 11.6239 7.23836 -0.0 0.0 -0.0 10.8568 14.4705 19.8258 25.0671 -18.2838 65.3839 2.42601 -50.2284 1.13729 65.1916 -2.25728 -7.56541 -6.73293 21.5662 -32.8788 -0.0 0.0 -0.0 10.448 14.6143 -20.7066 -11.1319 -39.3167 -58.1844 1.08374 28.2284 -0.272509 38.9722 0.296886 4.8749 1.6669 -10.9189 -15.3324 0.0 0.0 0.0 -10.5079 -1.43789 3.80246 -14.7572 0.321237 2.23563 34.5943 26.669 -4.66811 -11.9816 0.0 0.0 -0.0 0.0 -0.0 28.9571 6.02597 -3.52076 -49.7592 1.20126 -7.30587 40.7381 -5.4761 4.92134 38.0536 -0.0 -0.0 0.0 0.0 0.0 
2659.16937448 742.707 -1579.80863991 26.422961448 73.1905675469 -23.6031744836 -3.52003 -0.149084 -0.996738 -3.51948 -0.0853601 -1.0042 -3.51718 0.188711 -0.990001 -3.51855 0.0299984 -1.00738 -6.93284 8.41841 5.55521 -6.85869 11.6239 7.23836 -0.0 0.0 -0.0 10.8568 14.4705 19.8258 25.0671 -18.2838 65.3839 2.42601 -50.2284 1.13729 65.1916 -2.25728 -7.56541 -6.73293 21.5662 -32.8788 -0.0 0.0 -0.0 10.448 14.6143 -20.7066 -11.1319 -39.3167 -58.1844 1.08374 28.2284 -0.272509 38.9722 0.296886 4.8749 1.6669 -10.9189 -15.3324 0.0 0.0 0.0 -10.5079 -1.43789 3.80246 -14.7572 0.321237 2.23563 34.5943 26.669 -4.66811 -11.9816 0.0 0.0 -0.0 0.0 -0.0 28.9571 6.02597 -3.52076 -49.7592 1.20126 -7.30587 40.7381 -5.4761 4.92134 38.0536 -0.0 -0.0 0.0 0.0 0.0 
2622.64844055 737.415 -1584.57914958 20.2337039138 73.3512800171 -17.8046303887 -3.14644 -0.172701 -0.726734 -3.14615 -0.126108 -0.73625 -3.14409 0.0723369 -0.743461 -3.14486 -0.0459834 -0.745555 -5.73281 8.84927 3.7179 -5.6826 13.5918 5.37975 -0.0 0.0 -0.0 10.3287 14.4181 18.893 28.045 -19.614 65.5667 2.84332 -54.6157 1.46826 63.0939 -2.05699 -7.38582 -5.85641 21.168 -27.0932 -0.0 0.0 -0.0 9.87343 11.2194 -19.5353 -11.3357 -42.1989 -58.8504 1.17102 30.1166 -0.315063 38.0373 0.251132 4.76445 1.48234 -14.4377 -15.3378 0.0 0.0 0.0 -12.8907 0.469541 4.45284 -11.2658 0.297474 1.70056 36.4631 25.5461 -4.83169 -10.9923 0.0 0.0 -0.0 0.0 -0.0 33.3209 5.30766 -4.20761 -35.7016 0.216188 -5.3872 38.7291 -4.03947 4.74692 37.0962 -0.0 -0.0 0.0 0.0 0.0 
2601.76889245 734.632 -1586.07726004 16.3308633252 73.3959518424 -14.160162133 -2.90366 -0.170704 -0.529658 -2.90352 -0.136655 -0.539446 -2.90199 0.00795475 -0.556429 -2.90241 -0.0800213 -0.550702 -5.34804 8.88879 2.98148 -5.29991 14.1606 4.6057 -0.0 0.0 -0.0 10.0403 14.3692 18.3899 29.081 -19.8825 65.9986 3.0096 -56.1368 1.60511 62.1754 -1.97139 -7.30491 -5.34923 19.6624 -24.8496 -0.0 0.0 -0.0 9.72757 9.78662 -19.2418 -11.1622 -43.4505 -59.3556 1.23943 31.5476 -0.350122 37.7956 0.239599 4.73578 1.44665 -15.1979 -15.364 0.0 0.0 0.0 -13.5684 0.948879 4.74781 -10.1662 0.283243 1.53243 35.3288 26.1714 -4.73164 -10.7642 0.0 0.0 -0.0 0.0 -0.0 34.3074 4.60707 -4.97285 -31.0996 -0.000378649 -4.71454 38.8333 -4.83319 4.75542 38.234 -0.0 -0.0 0.0 0.0 0.0 
2601.05787536 734.632 -1591.15020345 15.8684215889 72.9107949921 -13.6769888943 -2.90366 -0.170704 -0.529658 -2.90352 -0.136655 -0.539446 -2.90199 0.00795475 -0.556429 -2.90241 -0.0800213 -0.550702 -5.34804 8.88879 2.98148 -5.29991 14.1606 4.6057 -0.0 0.0 -0.0 10.0403 14.3692 18.3899 29.081 -19.8825 65.9986 3.0096 -56.1368 1.60511 62.1754 -1.97139 -7.30491 -5.34923 19.6624 -24.8496 -0.0 0.0 -0.0 9.72757 9.78662 -19.2418 -11.1622 -43.4505 -59.3556 1.23943 31.5476 -0.350122 37.7956 0.239599 4.73578 1.44665 -15.1979 -15.364 0.0 0.0 0.0 -13.5684 0.948879 4.74781 -10.1662 0.283243 1.53243 35.3288 26.1714 -4.73164 -10.7642 0.0 0.0 -0.0 0.0 -0.0 34.3074 4.60707 -4.97285 -31.0996 -0.000378649 -4.71454 38.8333 -4.83319 4.75542 38.234 -0.0 -0.0 0.0 0.0 0.0 
2580.96777199 727.312 -1594.90257052 15.4816275764 72.8529328148 -13.6517157259 -2.77831 -0.291261 -0.441698 -2.77824 -0.262565 -0.459336 -2.77594 -0.135556 -0.511423 -2.77624 -0.214623 -0.483597 -4.85288 8.88069 2.2037 -4.80012 14.666 3.76326 -0.0 0.0 -0.0 9.35039 13.5694 17.2742 29.6975 -21.1477 66.4072 3.12885 -57.1582 1.70472 61.4692 -1.90646 -7.24178 -5.11524 19.9372 -23.095 -0.0 0.0 -0.0 9.70442 8.67029 -19.2036 -10.5191 -43.2361 -58.2262 1.17695 30.2422 -0.31804 37.6965 0.234904 4.72401 1.26314 -17.4014 -14.9287 0.0 0.0 0.0 -15.2061 2.65745 5.51235 -9.63108 0.27515 1.45072 37.2527 25.433 -4.90947 -9.44689 0.0 0.0 -0.0 0.0 -0.0 35.6348 4.46024 -5.29841 -27.7106 -0.124924 -4.20941 38.4158 -4.3248 4.7185 38.3132 -0.0 -0.0 0.0 0.0 0.0 
